<!-- assets/img/og.svg -->
<svg xmlns="http://www.w3.org/2000/svg" width="1200" height="630" viewBox="0 0 1200 630">
  <title>OG Preview</title>
  <desc>PvP (@eoaiv) — Free Team + Impossible Gallery</desc>

  <defs>
    <linearGradient id="bg" x1="0" y1="0" x2="1200" y2="630" gradientUnits="userSpaceOnUse">
      <stop offset="0" stop-color="#05060a"/>
      <stop offset="0.6" stop-color="#070c14"/>
      <stop offset="1" stop-color="#05060a"/>
    </linearGradient>

    <linearGradient id="neon" x1="80" y1="100" x2="1120" y2="540" gradientUnits="userSpaceOnUse">
      <stop offset="0" stop-color="#1ef0ff" stop-opacity="0.95"/>
      <stop offset="0.5" stop-color="#9bff3c" stop-opacity="0.85"/>
      <stop offset="1" stop-color="#ff2bd6" stop-opacity="0.70"/>
    </linearGradient>

    <linearGradient id="scan" x1="0" y1="0" x2="0" y2="24" gradientUnits="userSpaceOnUse">
      <stop offset="0" stop-color="rgba(255,255,255,0)"/>
      <stop offset="0.55" stop-color="rgba(233,238,248,0.10)"/>
      <stop offset="1" stop-color="rgba(255,255,255,0)"/>
    </linearGradient>

    <filter id="softGlow" x="-30%" y="-30%" width="160%" height="160%">
      <feGaussianBlur stdDeviation="3" result="b"/>
      <feColorMatrix in="b" type="matrix"
        values="1 0 0 0 0
                0 1 0 0 0
                0 0 1 0 0
                0 0 0 .75 0" result="g"/>
      <feMerge>
        <feMergeNode in="g"/>
        <feMergeNode in="SourceGraphic"/>
      </feMerge>
    </filter>
  </defs>

  <!-- background -->
  <rect width="1200" height="630" fill="url(#bg)"/>

  <!-- scanlines -->
  <g opacity="0.22">
    <rect x="0" y="0" width="1200" height="630" fill="url(#scan)"/>
    <rect x="0" y="24" width="1200" height="630" fill="url(#scan)"/>
    <rect x="0" y="48" width="1200" height="630" fill="url(#scan)"/>
    <rect x="0" y="72" width="1200" height="630" fill="url(#scan)"/>
    <rect x="0" y="96" width="1200" height="630" fill="url(#scan)"/>
    <rect x="0" y="120" width="1200" height="630" fill="url(#scan)"/>
    <rect x="0" y="144" width="1200" height="630" fill="url(#scan)"/>
    <rect x="0" y="168" width="1200" height="630" fill="url(#scan)"/>
    <rect x="0" y="192" width="1200" height="630" fill="url(#scan)"/>
    <rect x="0" y="216" width="1200" height="630" fill="url(#scan)"/>
    <rect x="0" y="240" width="1200" height="630" fill="url(#scan)"/>
    <rect x="0" y="264" width="1200" height="630" fill="url(#scan)"/>
    <rect x="0" y="288" width="1200" height="630" fill="url(#scan)"/>
    <rect x="0" y="312" width="1200" height="630" fill="url(#scan)"/>
    <rect x="0" y="336" width="1200" height="630" fill="url(#scan)"/>
    <rect x="0" y="360" width="1200" height="630" fill="url(#scan)"/>
    <rect x="0" y="384" width="1200" height="630" fill="url(#scan)"/>
    <rect x="0" y="408" width="1200" height="630" fill="url(#scan)"/>
    <rect x="0" y="432" width="1200" height="630" fill="url(#scan)"/>
    <rect x="0" y="456" width="1200" height="630" fill="url(#scan)"/>
    <rect x="0" y="480" width="1200" height="630" fill="url(#scan)"/>
    <rect x="0" y="504" width="1200" height="630" fill="url(#scan)"/>
    <rect x="0" y="528" width="1200" height="630" fill="url(#scan)"/>
    <rect x="0" y="552" width="1200" height="630" fill="url(#scan)"/>
    <rect x="0" y="576" width="1200" height="630" fill="url(#scan)"/>
    <rect x="0" y="600" width="1200" height="630" fill="url(#scan)"/>
  </g>

  <!-- outer frame -->
  <rect x="48" y="48" width="1104" height="534" rx="26"
        fill="none" stroke="url(#neon)" stroke-width="4" opacity="0.92" filter="url(#softGlow)"/>

  <!-- subtle corner accents -->
  <g opacity="0.55" filter="url(#softGlow)">
    <path d="M72 98 L72 72 L98 72" stroke="#1ef0ff" stroke-width="4" fill="none" stroke-linecap="round"/>
    <path d="M1128 98 L1128 72 L1102 72" stroke="#ff2bd6" stroke-width="4" fill="none" stroke-linecap="round"/>
    <path d="M72 532 L72 558 L98 558" stroke="#9bff3c" stroke-width="4" fill="none" stroke-linecap="round"/>
    <path d="M1128 532 L1128 558 L1102 558" stroke="#1ef0ff" stroke-width="4" fill="none" stroke-linecap="round"/>
  </g>

  <!-- copy -->
  <g opacity="0.92">
    <text x="90" y="190" fill="#e9eef8"
          font-family="Orbitron, system-ui, sans-serif"
          font-size="64" font-weight="700" letter-spacing="3">
      PvP
    </text>

    <text x="90" y="250" fill="#aab6cc"
          font-family="Inter, system-ui, sans-serif"
          font-size="28" font-weight="500">
      @eoaiv • со‑овнер / кодер Free Team
    </text>

    <text x="90" y="332" fill="#e9eef8"
          font-family="Inter, system-ui, sans-serif"
          font-size="28" font-weight="500">
      Impossible Gallery • cyber maximalism • mono objects
    </text>

    <text x="90" y="380" fill="#aab6cc"
          font-family="Inter, system-ui, sans-serif"
          font-size="20">
      Вступай в тиму: t.me/+dyh5UV7beHQ5M2Qy
    </text>
  </g>

  <!-- impossible triangle icon -->
  <g transform="translate(820,160)" filter="url(#softGlow)">
    <!-- thick mono stroke -->
    <path d="M120 0 L240 210 L0 210 Z"
          fill="none" stroke="#e9eef8" stroke-width="18"
          stroke-linejoin="round" opacity="0.92"/>

    <!-- neon edges -->
    <path d="M120 0 L240 210" stroke="#1ef0ff" stroke-width="4" opacity="0.80"/>
    <path d="M240 210 L0 210" stroke="#9bff3c" stroke-width="4" opacity="0.70"/>
    <path d="M0 210 L120 0" stroke="#ff2bd6" stroke-width="4" opacity="0.62"/>

    <!-- inner “impossible” cut line -->
    <path d="M120 0 L180 105 L60 105 Z"
          fill="none" stroke="rgba(10,12,18,0.85)" stroke-width="10"
          stroke-linejoin="round" opacity="0.9"/>
  </g>
</svg>